# Blender v3.0.1 OBJ File: 'house.blend'
# www.blender.org
mtllib house.mtl
o Cube
v 1.000000 0.600000 -1.000000
v 1.000000 -1.500000 -1.000000
v 1.000000 0.600000 1.000000
v 1.000000 -1.500000 1.000000
v -1.000000 0.600000 -1.000000
v -1.000000 -1.500000 -1.000000
v -1.000000 0.600000 1.000000
v -1.000000 -1.500000 1.000000
v -1.000000 -1.500000 0.000000
v 1.000000 1.600000 0.000000
v -1.000000 1.600000 0.000000
v 1.000000 -1.500000 0.000000
v 1.000000 0.670711 1.070711
v -1.000000 0.670711 1.070711
v 1.000000 1.670711 0.070711
v -1.000000 1.670711 0.070711
v 1.000000 0.458579 1.141421
v -1.000000 0.458579 1.141421
v 1.000000 0.529289 1.212132
v -1.000000 0.529289 1.212132
v 1.000000 0.670711 -1.070711
v -1.000000 0.670711 -1.070711
v 1.000000 1.670711 -0.070711
v -1.000000 1.670711 -0.070711
v 1.000000 0.458579 -1.141421
v -1.000000 0.458579 -1.141421
v 1.000000 0.529289 -1.212132
v -1.000000 0.529289 -1.212132
vt 0.625000 0.125000
vt 0.625000 0.000000
vt 0.625000 0.000000
vt 0.625000 0.125000
vt 0.375000 0.750000
vt 0.625000 0.750000
vt 0.625000 1.000000
vt 0.375000 1.000000
vt 0.375000 0.125000
vt 0.625000 0.250000
vt 0.375000 0.250000
vt 0.125000 0.625000
vt 0.375000 0.625000
vt 0.125000 0.750000
vt 0.625000 0.625000
vt 0.625000 0.500000
vt 0.375000 0.500000
vt 0.125000 0.500000
vt 0.375000 0.000000
vt 0.625000 0.250000
vt 0.625000 0.500000
vt 0.625000 0.625000
vt 0.875000 0.625000
vt 0.875000 0.750000
vt 0.625000 0.750000
vt 0.875000 0.625000
vt 0.625000 0.750000
vt 0.625000 0.750000
vt 0.625000 1.000000
vt 0.625000 1.000000
vt 0.625000 0.000000
vt 0.625000 0.000000
vt 0.875000 0.750000
vt 0.625000 0.500000
vt 0.875000 0.500000
vt 0.875000 0.625000
vt 0.625000 0.625000
vt 0.625000 0.125000
vt 0.625000 0.250000
vt 0.625000 0.250000
vt 0.625000 0.500000
vt 0.875000 0.500000
vt 0.000000 0.000000
vt 0.000000 0.000000
vt 0.000000 0.000000
vt 0.000000 0.000000
vn -1.0000 0.0000 0.0000
vn 0.0000 0.0000 1.0000
vn 0.0000 -1.0000 0.0000
vn 1.0000 0.0000 0.0000
vn 0.0000 0.0000 -1.0000
vn 0.0000 -0.7071 0.7071
vn 0.0000 0.7071 0.7071
vn 0.0000 0.7071 -0.7071
vn 0.0000 -0.7071 -0.7071
vn 0.0000 1.0000 0.0000
usemtl Material
s off
f 11/1/1 7/2/1 14/3/1 16/4/1
f 4/5/2 3/6/2 7/7/2 8/8/2
f 9/9/1 11/1/1 5/10/1 6/11/1
f 9/12/3 12/13/3 4/5/3 8/14/3
f 12/13/4 10/15/4 3/6/4 4/5/4
f 6/11/5 5/10/5 1/16/5 2/17/5
f 2/17/4 1/16/4 10/15/4 12/13/4
f 6/18/3 2/17/3 12/13/3 9/12/3
f 8/19/1 7/2/1 11/1/1 9/9/1
f 1/16/6 5/10/6 26/20/6 25/21/6
f 15/22/7 16/23/7 14/24/7 13/25/7
f 10/15/8 11/26/8 16/23/8 15/22/8
f 3/6/4 13/25/4 19/27/4 17/28/4
f 3/6/4 10/15/4 15/22/4 13/25/4
f 18/29/6 17/28/6 19/27/6 20/30/6
f 7/7/9 3/6/9 17/28/9 18/29/9
f 14/3/1 7/2/1 18/31/1 20/32/1
f 13/25/7 14/24/7 20/33/7 19/27/7
f 21/34/8 22/35/8 24/36/8 23/37/8
f 11/26/7 10/15/7 23/37/7 24/36/7
f 10/15/4 1/16/4 21/34/4 23/37/4
f 5/10/1 11/1/1 24/38/1 22/39/1
f 25/21/9 26/20/9 28/40/9 27/41/9
f 21/34/4 1/16/4 25/21/4 27/41/4
f 22/35/8 21/34/8 27/41/8 28/42/8
f 5/10/1 22/39/1 28/40/1 26/20/1
f 15/22/4 10/15/4 23/37/4
f 11/1/1 16/4/1 24/36/1
f 24/43/10 16/44/10 15/45/10 23/46/10
